<svg xmlns="http://www.w3.org/2000/svg" viewBox="0 0 135.467 135.467"><defs><linearGradient id="a"><stop offset="0" stop-color="#8af7eb"/><stop offset="1" stop-color="#8af7eb" stop-opacity="0"/></linearGradient></defs><path d="M.108.108h135.25v135.25H.109z" fill="#052d46" stroke="#f8f7f7" stroke-width=".21571207999999997"/><g class="brain" transform="translate(-22.475 -171.62) scale(1.08838)"><path d="M95.24 182.311l-5.499 5.143-3.31-7.791z" fill="#4bbfd1" stroke="#a7ffff" stroke-width=".265" stroke-linecap="round" stroke-linejoin="round"/><path d="M104.994 183.139l-5.262 4.966-4.493-5.794z" fill="#3b96b2" stroke="#a7ffff" stroke-width=".265" stroke-linecap="round" stroke-linejoin="round"/><path d="M77.563 182.43l-2.838 9.163-3.015-8.75z" fill="#64c4d5" stroke="#a7ffff" stroke-width=".265" stroke-linecap="round" stroke-linejoin="round"/><path d="M89.741 187.454l-12.178-5.025 8.869-2.766z" fill="#4bbfd2" stroke="#a7ffff" stroke-width=".265" stroke-linecap="round" stroke-linejoin="round"/><path d="M99.732 188.105l-9.99-.65 5.497-5.144z" fill="#00749d" stroke="#a7ffff" stroke-width=".265" stroke-linecap="round" stroke-linejoin="round"/><path d="M109.073 186.39l-9.341 1.715 5.262-4.966z" fill="#60c8d7" stroke="#a7ffff" stroke-width=".265" stroke-linecap="round" stroke-linejoin="round"/><path d="M65.207 184.321l-7.508 8.75-4.552-4.08z" fill="#006a91" stroke="#a7ffff" stroke-width=".265" stroke-linecap="round" stroke-linejoin="round"/><path d="M74.725 191.593l-9.518-7.272 6.503-1.478z" fill="#00739d" stroke="#a7ffff" stroke-width=".265" stroke-linecap="round" stroke-linejoin="round"/><path d="M109.073 186.39l-6.208 9.164-3.133-7.45z" fill="#33a1bb" stroke="#a7ffff" stroke-width=".265" stroke-linecap="round" stroke-linejoin="round"/><path d="M89.741 187.454l-15.016 4.139 2.838-9.164z" fill="#0078a0" stroke="#a7ffff" stroke-width=".265" stroke-linecap="round" stroke-linejoin="round"/><path d="M112.62 190.233l-9.755 5.32 6.208-9.163z" fill="#309fb9" stroke="#a7ffff" stroke-width=".265" stroke-linecap="round" stroke-linejoin="round"/><path d="M57.7 193.07l-11.706 4.198 7.153-8.277z" fill="#6dbfcf" stroke="#a7ffff" stroke-width=".265" stroke-linecap="round" stroke-linejoin="round"/><path d="M74.725 191.593L57.7 193.07l7.508-8.75z" fill="#23acc3" stroke="#a7ffff" stroke-width=".265" stroke-linecap="round" stroke-linejoin="round"/><path d="M102.865 195.554l-13.124-8.1 9.991.65z" fill="#24b0c8" stroke="#a7ffff" stroke-width=".265" stroke-linecap="round" stroke-linejoin="round"/><path d="M115.398 202.53l-2.778-12.297 5.616 4.375z" fill="#30a4bb" stroke="#a7ffff" stroke-width=".265" stroke-linecap="round" stroke-linejoin="round"/><path d="M123.438 200.815l-8.04 1.714 2.838-7.921z" fill="#2ea1b8" stroke="#a7ffff" stroke-width=".265" stroke-linecap="round" stroke-linejoin="round"/><path d="M115.398 202.53l-12.533-6.976 9.755-5.321z" fill="#00709a" stroke="#a7ffff" stroke-width=".265" stroke-linecap="round" stroke-linejoin="round"/><path d="M89.741 187.454l-10.405 20.041-4.61-15.902z" fill="#01a1c5" stroke="#a7ffff" stroke-width=".265" stroke-linecap="round" stroke-linejoin="round"/><path d="M45.994 197.268l-2.01 11.587-4.67-6.68z" fill="#006289" stroke="#a7ffff" stroke-width=".265" stroke-linecap="round" stroke-linejoin="round"/><path d="M92.993 209.269l-3.252-21.815 13.124 8.1z" fill="#69dce8" stroke="#a7ffff" stroke-width=".265" stroke-linecap="round" stroke-linejoin="round"/><path d="M92.993 209.269l-13.657-1.774 10.405-20.04z" fill="#0092bc" stroke="#a7ffff" stroke-width=".265" stroke-linecap="round" stroke-linejoin="round"/><path d="M129.291 208.441l-6.148 2.66.295-10.286z" fill="#3aa8bb" stroke="#a7ffff" stroke-width=".265" stroke-linecap="round" stroke-linejoin="round"/><path d="M43.984 208.855l-7.508 1.182 2.837-7.862z" fill="#005c84" stroke="#a7ffff" stroke-width=".265" stroke-linecap="round" stroke-linejoin="round"/><path d="M123.143 211.102l-7.745-8.573 8.04-1.714z" fill="#00638b" stroke="#a7ffff" stroke-width=".265" stroke-linecap="round" stroke-linejoin="round"/><path d="M74.725 191.593L63.73 212.107 57.7 193.07z" fill="#43bed4" stroke="#a7ffff" stroke-width=".265" stroke-linecap="round" stroke-linejoin="round"/><path d="M51.078 212.639l-7.094-3.784 2.01-11.587z" fill="#2ca5bc" stroke="#a7ffff" stroke-width=".265" stroke-linecap="round" stroke-linejoin="round"/><path d="M57.7 193.07l-6.622 19.569-5.084-15.371z" fill="#0c7ba0" stroke="#a7ffff" stroke-width=".265" stroke-linecap="round" stroke-linejoin="round"/><path d="M79.336 207.495l-15.607 4.612 10.996-20.514z" fill="#44cbe0" stroke="#a7ffff" stroke-width=".265" stroke-linecap="round" stroke-linejoin="round"/><path d="M111.851 212.402l-8.986-16.848 12.533 6.975z" fill="#00759e" stroke="#a7ffff" stroke-width=".265" stroke-linecap="round" stroke-linejoin="round"/><path d="M63.73 212.107l-12.652.532 6.621-19.568z" fill="#0784aa" stroke="#a7ffff" stroke-width=".265" stroke-linecap="round" stroke-linejoin="round"/><path d="M123.143 211.102l-11.292 1.3 3.547-9.873z" fill="#006b94" stroke="#a7ffff" stroke-width=".265" stroke-linecap="round" stroke-linejoin="round"/><path d="M128.995 215.654l-5.852-4.552 6.148-2.66z" fill="#49afc1" stroke="#a7ffff" stroke-width=".265" stroke-linecap="round" stroke-linejoin="round"/><path d="M111.851 212.402l-18.858-3.133 9.872-13.715z" fill="#0092b9" stroke="#a7ffff" stroke-width=".265" stroke-linecap="round" stroke-linejoin="round"/><path d="M111.851 212.402l-11.587 6.74-7.271-9.873z" fill="#19bed7" stroke="#a7ffff" stroke-width=".265" stroke-linecap="round" stroke-linejoin="round"/><path d="M79.336 207.495l-8.926 12.001-6.68-7.39z" fill="#009cc7" stroke="#a7ffff" stroke-width=".265" stroke-linecap="round" stroke-linejoin="round"/><path d="M43.984 208.855l-3.193 11.646-4.315-10.464z" fill="#2f9fb5" stroke="#a7ffff" stroke-width=".265" stroke-linecap="round" stroke-linejoin="round"/><path d="M90.628 219.378l-11.292-11.883 13.657 1.774z" fill="#6aebf6" stroke="#a7ffff" stroke-width=".265" stroke-linecap="round" stroke-linejoin="round"/><path d="M100.264 219.142l-9.636.236 2.365-10.11z" fill="#40d4e8" stroke="#a7ffff" stroke-width=".265" stroke-linecap="round" stroke-linejoin="round"/><path d="M51.078 212.639L40.79 220.5l3.193-11.646z" fill="#00648d" stroke="#a7ffff" stroke-width=".265" stroke-linecap="round" stroke-linejoin="round"/><path d="M123.143 211.102l-5.557 11.35-5.735-10.05z" fill="#2aa8c0" stroke="#a7ffff" stroke-width=".265" stroke-linecap="round" stroke-linejoin="round"/><path d="M128.995 215.654l-11.41 6.798 5.558-11.35z" fill="#1d7f9e" stroke="#a7ffff" stroke-width=".265" stroke-linecap="round" stroke-linejoin="round"/><path d="M48.122 225.704l-7.33-5.203 10.286-7.862z" fill="#36a8be" stroke="#a7ffff" stroke-width=".265" stroke-linecap="round" stroke-linejoin="round"/><path d="M63.73 212.107l-8.1 13.478-4.552-12.946z" fill="#8ef2f6" stroke="#a7ffff" stroke-width=".265" stroke-linecap="round" stroke-linejoin="round"/><path d="M128.463 224.226l-10.877-1.774 11.41-6.798z" fill="#3594ad" stroke="#a7ffff" stroke-width=".265" stroke-linecap="round" stroke-linejoin="round"/><path d="M55.63 225.585l-7.508.119 2.956-13.065z" fill="#0386a8" stroke="#a7ffff" stroke-width=".265" stroke-linecap="round" stroke-linejoin="round"/><path d="M90.628 219.378l-20.218.118 8.926-12z" fill="#00d0eb" stroke="#a7ffff" stroke-width=".265" stroke-linecap="round" stroke-linejoin="round"/><path d="M66.153 227.063l-2.424-14.956 6.68 7.39z" fill="#1fb7d3" stroke="#a7ffff" stroke-width=".265" stroke-linecap="round" stroke-linejoin="round"/><path d="M66.153 227.063l-10.523-1.478 8.1-13.478z" fill="#14a2c2" stroke="#a7ffff" stroke-width=".265" stroke-linecap="round" stroke-linejoin="round"/><path d="M117.586 222.452l-17.322-3.31 11.587-6.74z" fill="#7be5ed" stroke="#a7ffff" stroke-width=".265" stroke-linecap="round" stroke-linejoin="round"/><path d="M124.798 231.438l-7.212-8.986 10.877 1.774z" fill="#066288" stroke="#a7ffff" stroke-width=".265" stroke-linecap="round" stroke-linejoin="round"/><path d="M117.586 222.452l-10.878 10.11-6.444-13.42z" fill="#0079a2" stroke="#a7ffff" stroke-width=".265" stroke-linecap="round" stroke-linejoin="round"/><path d="M124.798 231.438l-5.557 2.306-1.655-11.292z" fill="#2ea1b7" stroke="#a7ffff" stroke-width=".265" stroke-linecap="round" stroke-linejoin="round"/><path d="M81.82 235.28l-11.41-15.784 20.218-.118z" fill="#009bc6" stroke="#a7ffff" stroke-width=".265" stroke-linecap="round" stroke-linejoin="round"/><path d="M119.241 233.744l-12.533-1.183 10.878-10.109z" fill="#006790" stroke="#a7ffff" stroke-width=".265" stroke-linecap="round" stroke-linejoin="round"/><path d="M81.82 235.28l-15.667-8.217 4.257-7.567z" fill="#0099c1" stroke="#a7ffff" stroke-width=".265" stroke-linecap="round" stroke-linejoin="round"/><path d="M100.382 239.774l-.118-20.632 6.444 13.42z" fill="#0a9ebe" stroke="#a7ffff" stroke-width=".265" stroke-linecap="round" stroke-linejoin="round"/><path d="M100.382 239.774l-9.754-20.396 9.636-.236z" fill="#03bad4" stroke="#a7ffff" stroke-width=".265" stroke-linecap="round" stroke-linejoin="round"/><path d="M115.28 241.902l-8.572-9.34 12.533 1.182z" fill="#36a8bd" stroke="#a7ffff" stroke-width=".265" stroke-linecap="round" stroke-linejoin="round"/><path d="M100.382 239.774L81.82 235.28l8.809-15.903z" fill="#43afcb" stroke="#a7ffff" stroke-width=".265" stroke-linecap="round" stroke-linejoin="round"/><path d="M100.382 239.774L89.8 244.799l-7.98-9.518z" fill="#268db0" stroke="#a7ffff" stroke-width=".265" stroke-linecap="round" stroke-linejoin="round"/><path d="M81.82 235.28l-1.301 11.056-3.666-3.31z" fill="#51c5d6" stroke="#a7ffff" stroke-width=".265" stroke-linecap="round" stroke-linejoin="round"/><path d="M115.28 241.902l-14.898-2.128 6.326-7.213z" fill="#5cbed0" stroke="#a7ffff" stroke-width=".265" stroke-linecap="round" stroke-linejoin="round"/><path d="M89.8 244.799l-9.281 1.537 1.3-11.055z" fill="#29b7cd" stroke="#a7ffff" stroke-width=".265" stroke-linecap="round" stroke-linejoin="round"/><path d="M115.28 241.902l-11.646 5.557-3.252-7.685z" fill="#00648d" stroke="#a7ffff" stroke-width=".265" stroke-linecap="round" stroke-linejoin="round"/><path d="M88.263 252.07l-7.744-5.734 9.281-1.537z" fill="#2aa9c1" stroke="#a7ffff" stroke-width=".265" stroke-linecap="round" stroke-linejoin="round"/><path d="M103.634 247.46L89.8 244.798l10.582-5.025z" fill="#34afc5" stroke="#a7ffff" stroke-width=".265" stroke-linecap="round" stroke-linejoin="round"/><path d="M78.982 253.312l-2.129-10.287 3.666 3.31z" fill="#29a9c1" stroke="#a7ffff" stroke-width=".265" stroke-linecap="round" stroke-linejoin="round"/><path d="M88.263 252.07l-9.281 1.242 1.537-6.976z" fill="#006b95" stroke="#a7ffff" stroke-width=".265" stroke-linecap="round" stroke-linejoin="round"/><path d="M87.672 260.17l-8.69-6.858 9.281-1.242z" fill="#007094" stroke="#a7ffff" stroke-width=".265" stroke-linecap="round" stroke-linejoin="round"/><circle r=".414" cy="179.663" cx="-86.432" transform="scale(-1 1)" fill="#a7ffff"/><circle r=".414" cy="182.429" cx="-77.563" transform="scale(-1 1)" fill="#a7ffff"/><circle r=".414" cy="191.593" cx="-74.725" transform="scale(-1 1)" fill="#a7ffff"/><circle r=".414" cy="182.843" cx="-71.71" transform="scale(-1 1)" fill="#a7ffff"/><circle r=".414" cy="184.321" cx="-65.207" transform="scale(-1 1)" fill="#a7ffff"/><circle r=".414" cy="193.071" cx="-57.699" transform="scale(-1 1)" fill="#a7ffff"/><circle r=".414" cy="188.991" cx="-53.147" transform="scale(-1 1)" fill="#a7ffff"/><circle r=".414" cy="187.454" cx="-89.741" transform="scale(-1 1)" fill="#a7ffff"/><circle r=".414" cy="182.311" cx="-95.239" transform="scale(-1 1)" fill="#a7ffff"/><circle r=".414" cy="183.139" cx="-104.994" transform="scale(-1 1)" fill="#a7ffff"/><circle r=".414" cy="186.39" cx="-109.073" transform="scale(-1 1)" fill="#a7ffff"/><circle r=".414" cy="188.105" cx="-99.732" transform="scale(-1 1)" fill="#a7ffff"/><circle r=".414" cy="195.554" cx="-102.865" transform="scale(-1 1)" fill="#a7ffff"/><circle r=".414" cy="190.233" cx="-112.62" transform="scale(-1 1)" fill="#a7ffff"/><circle r=".414" cy="194.608" cx="-118.236" transform="scale(-1 1)" fill="#a7ffff"/><circle r=".414" cy="202.529" cx="-115.398" transform="scale(-1 1)" fill="#a7ffff"/><circle r=".414" cy="200.815" cx="-123.438" transform="scale(-1 1)" fill="#a7ffff"/><circle r=".414" cy="211.102" cx="-123.143" transform="scale(-1 1)" fill="#a7ffff"/><circle r=".414" cy="208.441" cx="-129.291" transform="scale(-1 1)" fill="#a7ffff"/><circle r=".414" cy="215.654" cx="-128.995" transform="scale(-1 1)" fill="#a7ffff"/><circle r=".414" cy="212.402" cx="-111.851" transform="scale(-1 1)" fill="#a7ffff"/><circle r=".414" cy="222.452" cx="-117.586" transform="scale(-1 1)" fill="#a7ffff"/><circle r=".414" cy="224.226" cx="-128.463" transform="scale(-1 1)" fill="#a7ffff"/><circle r=".414" cy="231.438" cx="-124.798" transform="scale(-1 1)" fill="#a7ffff"/><circle r=".414" cy="233.744" cx="-119.241" transform="scale(-1 1)" fill="#a7ffff"/><circle r=".414" cy="219.142" cx="-100.264" transform="scale(-1 1)" fill="#a7ffff"/><circle r=".414" cy="219.378" cx="-90.628" transform="scale(-1 1)" fill="#a7ffff"/><circle r=".414" cy="209.269" cx="-92.993" transform="scale(-1 1)" fill="#a7ffff"/><circle r=".414" cy="207.495" cx="-79.336" transform="scale(-1 1)" fill="#a7ffff"/><circle r=".414" cy="212.107" cx="-63.729" transform="scale(-1 1)" fill="#a7ffff"/><circle r=".414" cy="197.268" cx="-45.994" transform="scale(-1 1)" fill="#a7ffff"/><circle r=".414" cy="208.855" cx="-43.984" transform="scale(-1 1)" fill="#a7ffff"/><circle r=".414" cy="202.175" cx="-39.313" transform="scale(-1 1)" fill="#a7ffff"/><circle r=".414" cy="210.037" cx="-36.476" transform="scale(-1 1)" fill="#a7ffff"/><circle r=".414" cy="220.501" cx="-40.791" transform="scale(-1 1)" fill="#a7ffff"/><circle r=".414" cy="212.639" cx="-51.078" transform="scale(-1 1)" fill="#a7ffff"/><circle r=".414" cy="225.704" cx="-48.122" transform="scale(-1 1)" fill="#a7ffff"/><circle r=".414" cy="225.585" cx="-55.63" transform="scale(-1 1)" fill="#a7ffff"/><circle r=".414" cy="227.063" cx="-66.153" transform="scale(-1 1)" fill="#a7ffff"/><circle r=".414" cy="219.496" cx="-70.41" transform="scale(-1 1)" fill="#a7ffff"/><circle r=".414" cy="235.281" cx="-81.819" transform="scale(-1 1)" fill="#a7ffff"/><circle r=".414" cy="239.774" cx="-100.382" transform="scale(-1 1)" fill="#a7ffff"/><circle r=".414" cy="232.561" cx="-106.708" transform="scale(-1 1)" fill="#a7ffff"/><circle r=".414" cy="241.902" cx="-115.28" transform="scale(-1 1)" fill="#a7ffff"/><circle r=".414" cy="247.459" cx="-103.634" transform="scale(-1 1)" fill="#a7ffff"/><circle r=".414" cy="244.799" cx="-89.8" transform="scale(-1 1)" fill="#a7ffff"/><circle r=".414" cy="252.07" cx="-88.263" transform="scale(-1 1)" fill="#a7ffff"/><circle r=".414" cy="246.336" cx="-80.519" transform="scale(-1 1)" fill="#a7ffff"/><circle r=".414" cy="243.025" cx="-76.853" transform="scale(-1 1)" fill="#a7ffff"/><circle r=".414" cy="253.312" cx="-78.982" transform="scale(-1 1)" fill="#a7ffff"/><circle r=".414" cy="260.169" cx="-87.672" transform="scale(-1 1)" fill="#a7ffff"/></g></svg>
